<?xml version="1.0" encoding="UTF-8" standalone="no"?><!-- Generator: Gravit.io --><svg xmlns="http://www.w3.org/2000/svg" xmlns:xlink="http://www.w3.org/1999/xlink" style="isolation:isolate" viewBox="-589.644 -476.518 3016.723 1893.035" width="3016.723pt" height="1893.035pt"><defs><clipPath id="_clipPath_6wObk6qvbQPBm3hlMbxsfalpgGRTk6KP"><rect x="-589.644" y="-476.518" width="3016.723" height="1893.035"/></clipPath></defs><g clip-path="url(#_clipPath_6wObk6qvbQPBm3hlMbxsfalpgGRTk6KP)"><path d="M -485.591 315.48 L 211.431 315.48 C 250.887 315.48 282.92 347.513 282.92 386.969 L 282.92 1083.991 C 282.92 1123.447 250.887 1155.48 211.431 1155.48 L -485.591 1155.48 C -525.047 1155.48 -557.08 1123.447 -557.08 1083.991 L -557.08 386.969 C -557.08 347.513 -525.047 315.48 -485.591 315.48 Z" style="stroke:none;fill:#2D4C6F;stroke-miterlimit:10;"/><path d="M -485.591 315.48 L 211.431 315.48 C 250.887 315.48 282.92 347.513 282.92 386.969 L 282.92 1083.991 C 282.92 1123.447 250.887 1155.48 211.431 1155.48 L -485.591 1155.48 C -525.047 1155.48 -557.08 1123.447 -557.08 1083.991 L -557.08 386.969 C -557.08 347.513 -525.047 315.48 -485.591 315.48 Z" style="fill:none;stroke:#3C638C;stroke-width:65.1282051282051;stroke-linecap:round;stroke-miterlimit:2;"/><path d="M 1474.409 315.48 L 2171.431 315.48 C 2210.887 315.48 2242.92 347.513 2242.92 386.969 L 2242.92 1083.991 C 2242.92 1123.447 2210.887 1155.48 2171.431 1155.48 L 1474.409 1155.48 C 1434.953 1155.48 1402.92 1123.447 1402.92 1083.991 L 1402.92 386.969 C 1402.92 347.513 1434.953 315.48 1474.409 315.48 Z" style="stroke:none;fill:#2D4C6F;stroke-linecap:round;stroke-miterlimit:2;"/><path d="M 1474.409 315.48 L 2171.431 315.48 C 2210.887 315.48 2242.92 347.513 2242.92 386.969 L 2242.92 1083.991 C 2242.92 1123.447 2210.887 1155.48 2171.431 1155.48 L 1474.409 1155.48 C 1434.953 1155.48 1402.92 1123.447 1402.92 1083.991 L 1402.92 386.969 C 1402.92 347.513 1434.953 315.48 1474.409 315.48 Z" style="fill:none;stroke:#3C638C;stroke-width:65.1282051282051;stroke-linecap:round;stroke-miterlimit:2;"/><path d="M 494.409 315.48 L 1191.431 315.48 C 1230.887 315.48 1262.92 347.513 1262.92 386.969 L 1262.92 1083.991 C 1262.92 1123.447 1230.887 1155.48 1191.431 1155.48 L 494.409 1155.48 C 454.953 1155.48 422.92 1123.447 422.92 1083.991 L 422.92 386.969 C 422.92 347.513 454.953 315.48 494.409 315.48 Z" style="stroke:none;fill:#2D4C6F;stroke-linecap:round;stroke-miterlimit:2;"/><path d="M 494.409 315.48 L 1191.431 315.48 C 1230.887 315.48 1262.92 347.513 1262.92 386.969 L 1262.92 1083.991 C 1262.92 1123.447 1230.887 1155.48 1191.431 1155.48 L 494.409 1155.48 C 454.953 1155.48 422.92 1123.447 422.92 1083.991 L 422.92 386.969 C 422.92 347.513 454.953 315.48 494.409 315.48 Z" style="fill:none;stroke:#3C638C;stroke-width:65.1282051282051;stroke-linecap:round;stroke-miterlimit:2;"/><g><path d=" M 683.493 499.59 L 1191.743 1007.84 C 1200.333 1016.43 1200.333 1030.276 1191.744 1038.867 L 1146.29 1084.322 C 1137.783 1092.829 1123.854 1092.911 1115.262 1084.32 L 607.014 576.071 C 598.424 567.48 598.506 553.551 607.013 545.043 L 652.467 499.589 C 661.056 491 674.902 491 683.493 499.59 Z " fill="rgb(181,128,88)"/><path d=" M 631.616 520.44 L 1170.893 1059.717 L 1146.29 1084.32 C 1137.783 1092.827 1123.854 1092.909 1115.262 1084.319 L 607.014 576.071 C 598.424 567.48 598.506 553.551 607.013 545.043 L 631.616 520.44 Z " fill="rgb(142,96,71)"/><path d=" M 1101.834 398.174 C 1007.84 421.777 896.667 484.076 790.998 576.572 L 811.598 597.171 C 822.106 607.679 822.106 624.527 811.598 635.035 L 742.459 704.174 C 732.033 714.6 715.103 714.682 704.595 704.174 L 683.996 683.574 C 591.5 789.245 529.2 900.421 505.597 994.413 C 497.591 977.566 492.337 958.801 489.667 938.784 C 475.24 829.612 538.957 679.82 663.142 555.636 C 787.243 431.535 937.034 367.817 1046.206 382.244 C 1066.307 384.83 1084.989 390.167 1101.834 398.174 Z " fill="rgb(148,166,173)"/><path d=" M 1101.834 398.174 C 1007.84 421.777 896.667 484.076 790.998 576.572 L 811.598 597.171 C 822.106 607.679 822.106 624.527 811.598 635.035 L 742.459 704.174 C 732.033 714.6 715.103 714.682 704.595 704.174 L 683.996 683.574 C 591.5 789.245 529.2 900.421 505.597 994.413 C 497.591 977.566 492.337 958.801 489.667 938.784 C 516.439 833.281 591.5 708.178 703.592 596.086 C 815.6 484.078 940.704 409.017 1046.206 382.244 C 1066.307 384.83 1084.989 390.167 1101.834 398.174 Z " fill="rgb(133,140,148)"/></g><g><path d=" M 1912.809 916.697 L 1733.005 916.697 C 1723.051 916.697 1714.452 909.728 1712.389 899.988 C 1708.981 883.888 1705.573 864.128 1702.27 845.021 C 1700.3 833.585 1698.275 821.848 1696.267 811.016 C 1664.808 790.971 1638.359 763.616 1619.406 731.416 C 1598.153 695.31 1586.92 653.973 1586.92 611.863 C 1586.92 481.731 1692.788 375.863 1822.92 375.863 C 1953.053 375.863 2058.92 481.731 2058.92 611.863 C 2058.92 653.979 2047.682 695.326 2026.424 731.433 C 2007.466 763.633 1981.011 790.987 1949.547 811.038 C 1947.538 821.864 1945.513 833.596 1943.543 845.021 C 1940.245 864.133 1936.832 883.888 1933.425 899.988 C 1931.361 909.728 1922.768 916.697 1912.809 916.697 Z " fill="rgb(255,210,34)"/><path d=" M 1822.92 375.863 L 1822.92 916.697 L 1912.809 916.697 C 1922.768 916.697 1931.361 909.728 1933.425 899.988 C 1936.832 883.888 1940.245 864.133 1943.543 845.021 C 1945.513 833.596 1947.538 821.864 1949.547 811.038 C 1981.011 790.992 2007.46 763.633 2026.424 731.433 C 2047.682 695.326 2058.92 653.979 2058.92 611.863 C 2058.92 481.731 1953.053 375.863 1822.92 375.863 L 1822.92 375.863 Z " fill="rgb(236,189,0)"/><path d=" M 1822.866 1095.101 C 1760.897 1095.101 1710.485 1044.689 1710.485 982.721 L 1710.485 895.625 C 1710.485 883.987 1719.917 874.554 1731.556 874.554 L 1914.23 874.554 C 1925.869 874.554 1935.301 883.987 1935.301 895.625 L 1935.301 982.721 C 1935.301 1044.689 1884.862 1095.101 1822.866 1095.101 Z " fill="rgb(245,240,235)"/><path d=" M 1792.076 735.482 C 1787.45 735.482 1782.791 733.968 1778.901 730.846 C 1769.825 723.558 1768.376 710.295 1775.658 701.219 L 1830.97 632.293 L 1770.944 632.293 C 1762.861 632.293 1755.492 627.672 1751.974 620.396 C 1748.457 613.12 1749.412 604.472 1754.427 598.14 L 1831.804 500.443 C 1839.031 491.323 1852.283 489.786 1861.403 497.008 C 1870.529 504.234 1872.065 517.486 1864.838 526.612 L 1814.514 590.15 L 1874.897 590.15 C 1883.001 590.15 1890.387 594.798 1893.894 602.107 C 1897.4 609.416 1896.402 618.086 1891.331 624.407 L 1808.527 727.597 C 1804.362 732.783 1798.249 735.482 1792.076 735.482 Z " fill="rgb(255,241,108)"/><path d=" M 1957.778 1000.982 L 1688.036 1000.982 C 1676.397 1000.982 1666.964 991.544 1666.964 979.911 C 1666.964 968.272 1676.397 958.84 1688.036 958.84 L 1957.778 958.84 C 1969.416 958.84 1978.849 968.272 1978.849 979.911 C 1978.849 991.544 1969.416 1000.982 1957.778 1000.982 Z " fill="rgb(235,225,220)"/><path d=" M 1957.778 916.697 L 1688.036 916.697 C 1676.397 916.697 1666.964 907.264 1666.964 895.625 C 1666.964 883.987 1676.397 874.554 1688.036 874.554 L 1957.778 874.554 C 1969.416 874.554 1978.849 883.987 1978.849 895.625 C 1978.849 907.264 1969.416 916.697 1957.778 916.697 Z " fill="rgb(235,225,220)"/><path d=" M 1822.92 579.537 L 1864.838 526.612 C 1872.065 517.492 1870.529 504.234 1861.403 497.013 C 1852.283 489.786 1839.031 491.323 1831.804 500.448 L 1822.92 511.659 L 1822.92 579.537 Z " fill="rgb(242,222,0)"/><path d=" M 1893.894 602.107 C 1890.387 594.798 1883.001 590.15 1874.897 590.15 L 1822.92 590.15 L 1822.92 632.293 L 1830.97 632.293 L 1822.92 642.324 L 1822.92 709.659 L 1891.331 624.407 C 1896.407 618.086 1897.4 609.416 1893.894 602.107 Z " fill="rgb(242,222,0)"/><path d=" M 1914.23 874.554 L 1822.92 874.554 L 1822.92 1095.101 C 1884.895 1095.069 1935.301 1044.667 1935.301 982.721 L 1935.301 895.625 C 1935.301 883.987 1925.869 874.554 1914.23 874.554 Z " fill="rgb(235,225,220)"/><g><path d=" M 1957.778 874.554 L 1822.92 874.554 L 1822.92 916.697 L 1957.778 916.697 C 1969.416 916.697 1978.849 907.264 1978.849 895.625 C 1978.849 883.987 1969.416 874.554 1957.778 874.554 Z " fill="rgb(220,210,205)"/><path d=" M 1957.778 958.84 L 1822.92 958.84 L 1822.92 1000.982 L 1957.778 1000.982 C 1969.416 1000.982 1978.849 991.544 1978.849 979.911 C 1978.849 968.272 1969.416 958.84 1957.778 958.84 Z " fill="rgb(220,210,205)"/></g></g><g><path d=" M -137.08 970.647 L -291.353 970.647 L -291.353 823.071 L -333.735 823.071 L -333.735 1097.14 L -291.353 1097.14 L -291.353 1013.029 L -137.08 1013.029 L -122.952 991.186 L -137.08 970.647 Z " fill="rgb(189,132,114)"/><path d=" M 17.194 823.071 L 17.194 970.647 L -137.08 970.647 L -137.08 1013.029 L 17.194 1013.029 L 17.194 1097.14 L 59.576 1097.14 L 59.576 823.071 L 17.194 823.071 Z " fill="rgb(160,95,75)"/><path d=" M -137.08 373.825 L -227.781 373.825 C -262.835 373.825 -291.353 402.344 -291.353 437.397 L -291.353 767.975 L -248.972 767.975 L -248.972 437.397 C -248.972 425.713 -239.465 416.207 -227.781 416.207 L -206.59 416.207 L -206.59 767.975 L -164.208 767.975 L -164.208 416.207 L -137.08 416.207 L -122.952 393.78 L -137.08 373.825 Z " fill="rgb(189,132,114)"/><path d=" M -46.378 373.825 L -137.08 373.825 L -137.08 416.207 L -109.951 416.207 L -109.951 767.975 L -67.569 767.975 L -67.569 416.207 L -46.378 416.207 C -34.694 416.207 -25.188 425.713 -25.188 437.397 L -25.188 767.975 L 17.194 767.975 L 17.194 437.397 C 17.194 402.344 -11.324 373.825 -46.378 373.825 Z " fill="rgb(160,95,75)"/><g><path d=" M -305.526 762.803 C -331.79 762.803 -353.08 784.094 -353.08 810.357 C -353.08 836.621 -331.788 857.911 -305.526 857.911 L -137.08 857.911 L -122.952 810.357 L -137.08 762.803 L -305.526 762.803 Z " fill="rgb(250,209,127)"/><path d=" M 31.367 762.803 L -137.08 762.803 L -137.08 857.912 L 31.367 857.912 C 57.631 857.912 78.92 836.621 78.92 810.358 C 78.92 784.093 57.629 762.803 31.367 762.803 Z " fill="rgb(255,182,85)"/></g></g><g><path d=" M -221.123 50.419 C -93.734 -198.775 165.561 -369.518 464.42 -369.518 C 889.119 -369.518 1233.92 -24.716 1233.92 399.982 C 1233.92 516.877 1207.799 627.718 1161.077 726.981 L -221.123 50.419 L -221.123 50.419 Z " fill="rgb(100,123,181)" fill-opacity="0.43137254901960786"/><path d=" M -221.123 50.419 C -274.808 155.319 -305.08 274.143 -305.08 399.982 C -305.08 824.681 39.722 1169.482 464.42 1169.482 C 772.225 1169.482 1038.061 988.366 1161.077 726.981 L -221.123 50.419 L -221.123 50.419 Z " fill="rgb(48,61,94)" fill-opacity="0.43137254901960786"/><path d=" M -169.434 75.72 L -327.583 -1.691 L -272.87 -94.418 C -249.02 -128.898 -222.74 -161.628 -194.24 -192.378 C -138.41 -252.558 -74.47 -304.668 -4.27 -347.218 C 64.98 -389.198 139.62 -421.568 217.6 -443.417 C 295.8 -465.368 376.65 -476.498 457.88 -476.518 L 657.39 -453.688 L 755.93 -424.688 C 755.93 -424.688 755.94 -424.688 755.94 -424.688 L 852.29 -383.618 L 962.96 -318.318 C 962.96 -318.308 962.96 -318.308 962.97 -318.308 C 997.44 -294.458 1030.18 -268.178 1060.92 -239.678 C 1121.1 -183.848 1173.21 -119.918 1215.76 -49.718 L 1311.96 172.172 C 1333.91 250.372 1345.04 331.212 1345.06 412.432 C 1345.07 479.592 1337.41 546.532 1322.23 611.952 C 1317.901 630.598 1312.97 649.094 1307.444 667.412 L 2385.828 1203.509 C 2422.566 1221.772 2437.565 1266.427 2419.301 1303.165 L 2403.431 1335.09 L 1107.613 700.811 C 1114.87 684.488 1121.527 667.9 1127.56 651.072 L 1150.79 572.162 C 1162.94 519.792 1169.07 466.212 1169.06 412.462 C 1169.05 347.292 1160.11 282.422 1142.5 219.672 C 1124.95 157.062 1098.96 97.122 1065.25 41.512 L 941.24 -110.638 L 862.85 -173.558 L 773.95 -226.008 L 696.52 -259.028 C 670.68 -268.288 644.34 -276.038 617.6 -282.248 C 565.24 -294.398 511.66 -300.528 457.91 -300.518 L 265.12 -273.958 L 86.96 -196.708 L -65.19 -72.698 L -128.12 5.702 L -169.434 75.72 L -169.434 75.72 Z " fill="rgb(210,204,199)"/><path d=" M -169.434 75.72 L -327.583 -1.691 L -338.17 16.252 L -338.17 16.252 L -379.24 112.602 C -379.25 112.602 -379.25 112.612 -379.25 112.612 L -408.25 211.152 L -431.08 410.662 L -397.97 650.942 C -376.12 728.922 -343.76 803.562 -301.78 872.812 L -146.93 1062.783 L -48.98 1141.403 C -48.98 1141.413 -48.97 1141.413 -48.97 1141.413 L 61.7 1206.712 L 158.05 1247.792 C 158.05 1247.792 158.05 1247.792 158.06 1247.792 L 256.59 1276.792 L 456.1 1299.622 C 456.11 1299.622 456.11 1299.622 456.12 1299.622 L 696.39 1266.512 L 918.26 1170.322 L 1108.22 1015.473 L 1186.85 917.523 C 1186.85 917.523 1186.86 917.512 1186.86 917.512 L 1211.54 875.686 L 2283.801 1408.739 C 2320.54 1427.003 2365.194 1412.004 2383.458 1375.266 L 2403.431 1335.09 L 1107.613 700.811 C 1103.45 710.128 1099.099 719.362 1094.55 728.502 C 1079.23 759.353 1061.7 789.062 1042.11 817.403 C 1023.02 844.992 1001.99 871.192 979.18 895.792 C 934.46 943.992 883.25 985.732 827.03 1019.812 C 771.42 1053.523 711.48 1079.512 648.87 1097.052 C 586.12 1114.663 521.25 1123.603 456.08 1123.622 C 402.33 1123.622 348.75 1117.492 296.38 1105.343 C 269.65 1099.143 243.3 1091.382 217.47 1082.122 C 191.04 1072.643 165.18 1061.612 140.04 1049.112 C 109.19 1033.783 79.48 1016.252 51.14 996.663 C 23.55 977.572 -2.65 956.542 -27.25 933.732 L -151.27 781.583 C -184.98 725.973 -210.97 666.042 -228.51 603.422 C -246.12 540.672 -255.06 475.812 -255.08 410.642 L -236.8 250.942 L -213.58 172.022 L -180.57 94.592 L -180.57 94.592 L -169.434 75.72 L -169.434 75.72 Z " fill="rgb(155,154,154)"/></g></g></svg>